<svg width="65" height="34" viewBox="0 0 65 34" fill="none" xmlns="http://www.w3.org/2000/svg">
<g id="Group 1000004758">
<g id="Rectangle 5808">
<rect width="65" height="34" rx="17" fill="#010337" fill-opacity="0.32" style="fill:#010337;fill:color(display-p3 0.0042 0.0111 0.2174);fill-opacity:0.32;"/>
<rect x="0.5" y="0.5" width="64" height="33" rx="16.5" stroke="white" stroke-opacity="0.1" style="stroke:white;stroke-opacity:0.1;"/>
</g>
<g id="Group 1000004757">
<g id="vuesax/outline/frame">
<g id="frame">
<g id="Group 1000004756">
<path id="Vector" d="M23.1464 16.6516C23.1189 16.6516 23.1005 16.6516 23.073 16.6516C23.0272 16.6424 22.963 16.6424 22.908 16.6516C20.2497 16.5691 18.2422 14.4791 18.2422 11.9033C18.2422 9.28159 20.378 7.14575 22.9997 7.14575C25.6214 7.14575 27.7572 9.28159 27.7572 11.9033C27.748 14.4791 25.7314 16.5691 23.1739 16.6516C23.1647 16.6516 23.1555 16.6516 23.1464 16.6516ZM22.9997 8.52075C21.1389 8.52075 19.6172 10.0424 19.6172 11.9033C19.6172 13.7366 21.0472 15.2124 22.8714 15.2766C22.9172 15.2674 23.0455 15.2674 23.1647 15.2766C24.9614 15.1941 26.373 13.7183 26.3822 11.9033C26.3822 10.0424 24.8605 8.52075 22.9997 8.52075Z" fill="white" style="fill:white;fill-opacity:1;"/>
<path id="Vector_2" d="M23.1555 26.6708C21.3588 26.6708 19.553 26.2125 18.1871 25.2958C16.913 24.4525 16.2163 23.2975 16.2163 22.0416C16.2163 20.7858 16.913 19.6216 18.1871 18.7691C20.9371 16.945 25.3921 16.945 28.1238 18.7691C29.3888 19.6125 30.0946 20.7675 30.0946 22.0233C30.0946 23.2791 29.398 24.4433 28.1238 25.2958C26.7488 26.2125 24.9521 26.6708 23.1555 26.6708ZM18.948 19.9241C18.068 20.5108 17.5913 21.2625 17.5913 22.0508C17.5913 22.83 18.0771 23.5816 18.948 24.1591C21.2305 25.69 25.0805 25.69 27.363 24.1591C28.243 23.5725 28.7196 22.8208 28.7196 22.0325C28.7196 21.2533 28.2338 20.5016 27.363 19.9241C25.0805 18.4025 21.2305 18.4025 18.948 19.9241Z" fill="white" style="fill:white;fill-opacity:1;"/>
</g>
</g>
</g>
<path id="Vector_3" d="M44.2535 20.35C43.9758 20.35 43.698 20.2477 43.4787 20.0284L38.318 14.8677C37.894 14.4437 37.894 13.7419 38.318 13.318C38.7419 12.894 39.4437 12.894 39.8677 13.318L44.2535 17.7039L48.6394 13.318C49.0634 12.894 49.7651 12.894 50.1891 13.318C50.613 13.7419 50.613 14.4437 50.1891 14.8677L45.0284 20.0284C44.8091 20.2477 44.5313 20.35 44.2535 20.35Z" fill="white" style="fill:white;fill-opacity:1;"/>
</g>
</g>
</svg>
