<svg width="30" height="28" viewBox="0 0 30 28" fill="none" xmlns="http://www.w3.org/2000/svg">
<g id="vuesax/bulk/video-octagon">
<g id="video-octagon">
<path id="Vector" d="M25.9595 9.91817V17.8249C25.9595 19.1196 25.2206 20.3218 24.0261 20.9807L16.7111 24.9457C15.5166 25.593 14.0388 25.593 12.8319 24.9457L5.51693 20.9807C4.32239 20.3334 3.5835 19.1312 3.5835 17.8249V9.91817C3.5835 8.62349 4.32239 7.42124 5.51693 6.76234L12.8319 2.79739C14.0265 2.15005 15.5042 2.15005 16.7111 2.79739L24.0261 6.76234C25.2206 7.42124 25.9595 8.61193 25.9595 9.91817Z" fill="white" style="fill:white;fill-opacity:1;"/>
<path id="Vector_2" d="M12.0068 13.8716V12.4844C12.0068 10.7042 13.3492 9.97601 14.987 10.8661L16.2678 11.5596L17.5485 12.2532C19.1864 13.1433 19.1864 14.5999 17.5485 15.49L16.2678 16.1835L14.987 16.8771C13.3492 17.7671 12.0068 17.0389 12.0068 15.2587V13.8716Z" fill="#C34337" style="fill:#C34337;fill:color(display-p3 0.7647 0.2627 0.2157);fill-opacity:1;"/>
</g>
</g>
</svg>
