<svg width="44" height="44" viewBox="0 0 44 44" fill="none" xmlns="http://www.w3.org/2000/svg">
<g id="vuesax/bold/arrow-left">
<g id="arrow-left">
<path id="Vector" d="M22.0002 40.3334C32.1202 40.3334 40.3335 32.12 40.3335 22C40.3335 11.88 32.1202 3.66671 22.0002 3.66671C11.8802 3.66671 3.66683 11.88 3.66683 22C3.66683 32.12 11.8802 40.3334 22.0002 40.3334ZM15.5835 20.625H25.0985L21.9452 17.4717C21.4135 16.94 21.4135 16.06 21.9452 15.5284C22.2202 15.2534 22.5685 15.125 22.9168 15.125C23.2652 15.125 23.6135 15.2534 23.8885 15.5284L29.3885 21.0284C29.9202 21.56 29.9202 22.44 29.3885 22.9717L23.8885 28.4717C23.3568 29.0034 22.4768 29.0034 21.9452 28.4717C21.4135 27.94 21.4135 27.06 21.9452 26.5284L25.0985 23.375H15.5835C14.8318 23.375 14.2085 22.7517 14.2085 22C14.2085 21.2484 14.8318 20.625 15.5835 20.625Z" fill="#252ABA" style="fill:#252ABA;fill:color(display-p3 0.1455 0.1646 0.7308);fill-opacity:1;"/>
</g>
</g>
</svg>
