<svg width="13" height="14" viewBox="0 0 13 14" fill="none" xmlns="http://www.w3.org/2000/svg">
<path d="M11.6275 7.24958L9.40288 4.24125C8.62705 3.19625 7.28121 2.70541 6.01455 3.04583C6.01455 3.03791 6.00663 3.03791 6.00663 3.03L4.69246 0.868746C4.45496 0.496662 3.96413 0.377913 3.59205 0.607496L0.844965 2.27791C0.464965 2.49958 0.346215 2.99833 0.575798 3.37833L1.88205 5.53958C1.88205 5.53958 1.88205 5.5475 1.88996 5.5475C1.01121 6.52125 0.821215 7.93833 1.40705 9.11791L3.05371 12.4746C3.56038 13.5117 4.7558 13.9075 5.76913 13.385C5.8483 13.3454 5.87205 13.2504 5.82455 13.1712L4.58955 11.1287C4.41538 10.8437 4.50246 10.4796 4.78746 10.2975C5.07246 10.1312 5.43663 10.2183 5.61871 10.4954L6.86163 12.5379C6.90913 12.6092 7.00413 12.6329 7.07538 12.5933L7.83538 12.1342C7.90663 12.0867 7.93038 11.9917 7.8908 11.9204L6.64788 9.87791C6.48163 9.59291 6.56871 9.22875 6.8458 9.04666C7.13871 8.88041 7.50288 8.96749 7.67705 9.24458L8.91996 11.2871C8.96746 11.3583 9.06246 11.3821 9.13371 11.3425L9.89371 10.8833C9.96496 10.8358 9.98871 10.7408 9.94913 10.6696L8.70621 8.62708C8.53996 8.34208 8.62705 7.97791 8.90413 7.79583C9.19705 7.62958 9.56121 7.71666 9.73538 7.99375L10.9862 10.0283C11.0337 10.0996 11.1287 10.1233 11.2 10.0758C12.1183 9.41875 12.3241 8.18375 11.6275 7.24958Z" fill="#FA2A2A" style="fill:#FA2A2A;fill:color(display-p3 0.9808 0.1659 0.1659);fill-opacity:1;"/>
</svg>
