<svg xmlns="http://www.w3.org/2000/svg" width="19" height="20" viewBox="0 0 19 20" fill="none">
  <path d="M17.5 18C14.05 18 9.5 20 9.5 20V9C9.5 9 14 7 18.5 7L17.5 18Z" fill="#95ACFF"/>
  <path d="M1.5 18C4.95 18 9.49999 20 9.49999 20V9C9.49999 9 5 7 0.5 7L1.5 18Z" fill="#B8C7FF"/>
  <path d="M5.5 4C5.5 4.52528 5.60346 5.04543 5.80448 5.53073C6.0055 6.01603 6.30014 6.45699 6.67157 6.82842C7.04301 7.19985 7.48396 7.49449 7.96926 7.69551C8.45457 7.89653 8.97471 7.99999 9.5 7.99999C10.0253 7.99999 10.5454 7.89653 11.0307 7.69551C11.516 7.49449 11.957 7.19985 12.3284 6.82842C12.6999 6.45699 12.9945 6.01603 13.1955 5.53073C13.3965 5.04543 13.5 4.52528 13.5 4C13.5 2.93913 13.0786 1.92172 12.3284 1.17157C11.5783 0.421427 10.5609 0 9.5 0C8.43913 0 7.42172 0.421427 6.67157 1.17157C5.92143 1.92172 5.5 2.93913 5.5 4Z" fill="#2859FF"/>
  <path d="M18 14H18.5C18.8 14 19 13.8 19 13.5V11.5C19 11.2 18.8 11 18.5 11H18C17.15 11 16.5 11.65 16.5 12.5C16.5 13.35 17.15 14 18 14ZM0.999999 11H0.5C0.2 11 0 11.2 0 11.5V13.5C0 13.8 0.2 14 0.5 14H0.999999C1.85 14 2.5 13.35 2.5 12.5C2.5 11.65 1.85 11 0.999999 11Z" fill="#2859FF"/>
</svg>