<svg width="26" height="24" viewBox="0 0 26 24" fill="none" xmlns="http://www.w3.org/2000/svg">
<g id="vuesax/bulk/book-saved">
<g id="book-saved">
<path id="Vector" opacity="0.4" d="M12.6667 5.25134V21.1343C12.8462 21.1343 13.0362 21.1045 13.184 21.0253L13.2262 21.0055C15.2529 19.9651 18.7889 18.8752 21.0795 18.5879L21.3856 18.5482C22.399 18.4293 23.2223 17.5376 23.2223 16.5864V4.61719C23.2223 3.43811 22.1984 2.54638 20.9423 2.64546C18.7257 2.8139 15.369 3.8642 13.4901 4.96402L13.2262 5.11261C13.0679 5.20178 12.8673 5.25134 12.6667 5.25134Z" fill="white" style="fill:white;fill-opacity:1;"/>
<path id="Vector_2" d="M2.11108 4.62716V16.5864C2.11108 17.5376 2.93441 18.4293 3.94774 18.5482L4.29609 18.5879C6.5972 18.8753 10.1439 19.975 12.1706 21.0253C12.3078 21.1046 12.4766 21.1343 12.6666 21.1343V5.25138C12.4661 5.25138 12.2655 5.20183 12.1072 5.11265L11.9277 5.00367C10.0489 3.89395 6.68162 2.83377 4.46495 2.65542H4.40162C3.14551 2.55634 2.11108 3.43817 2.11108 4.62716Z" fill="white" style="fill:white;fill-opacity:1;"/>
<path id="Vector_3" d="M20.0555 2.75452V7.00514C20.0555 7.40147 19.591 7.63925 19.2321 7.42127L17.9444 6.6187L16.6566 7.42127C16.3083 7.63925 15.8333 7.40147 15.8333 7.00514V3.88401C17.216 3.36878 18.7571 2.95268 20.0555 2.75452Z" fill="white" style="fill:white;fill-opacity:1;"/>
</g>
</g>
</svg>
