<svg width="22" height="21" viewBox="0 0 22 21" fill="none" xmlns="http://www.w3.org/2000/svg">
<g id="earth_line">
<path id="&#229;&#189;&#162;&#231;&#138;&#182;&#231;&#187;&#147;&#229;&#144;&#136;" d="M11.002 1.75C15.8344 1.75 19.752 5.66751 19.752 10.5C19.752 15.3324 15.8344 19.25 11.002 19.25C6.16946 19.25 2.25195 15.3324 2.25195 10.5C2.25195 5.66751 6.16946 1.75 11.002 1.75ZM12.4742 13.9559C11.5155 14.014 10.4884 14.014 9.52968 13.9559C9.64798 14.6441 9.79961 15.2631 9.97593 15.7918C10.1964 16.4534 10.4398 16.9257 10.6674 17.2147C10.744 17.3118 10.8618 17.5 11.0036 17.5C11.1304 17.4886 11.2683 17.3012 11.3365 17.2147C11.5641 16.9257 11.8075 16.4534 12.028 15.7918C12.2043 15.2631 12.3559 14.6441 12.4742 13.9559ZM17.5758 12.9104C17.3442 13.0101 17.1003 13.1019 16.8472 13.1862C16.1013 13.4349 15.2303 13.6339 14.2749 13.7729C14.1359 14.7283 13.9369 15.5993 13.6882 16.3453C13.6039 16.5983 13.5121 16.8423 13.4124 17.0739C15.3393 16.3671 16.8691 14.8374 17.5758 12.9104ZM4.42802 12.9104C5.13475 14.8374 6.66454 16.3671 8.59148 17.0739C8.49185 16.8423 8.40004 16.5983 8.3157 16.3453C8.06705 15.5993 7.86802 14.7283 7.72903 13.7729C6.77365 13.6339 5.90274 13.4348 5.15687 13.1862C4.90375 13.1019 4.6597 13.01 4.42802 12.9104ZM9.31478 8.81282C9.2297 9.93492 9.22969 11.0651 9.31478 12.1872C10.4369 12.2722 11.567 12.2722 12.6891 12.1872C12.7742 11.0651 12.7742 9.93492 12.6891 8.81282C11.567 8.72774 10.4369 8.72774 9.31478 8.81282ZM14.4579 9.02772C14.516 9.98646 14.516 11.0135 14.4579 11.9723C15.146 11.854 15.765 11.7023 16.2938 11.526C16.9554 11.3055 17.4277 11.0622 17.7166 10.8345C17.813 10.7586 18.002 10.6387 18.002 10.4983C17.9905 10.3715 17.8032 10.2336 17.7166 10.1655C17.4277 9.93781 16.9554 9.69447 16.2938 9.47397C15.765 9.29766 15.146 9.14602 14.4579 9.02772ZM7.54609 9.02781C6.85792 9.14611 6.239 9.29766 5.71027 9.47397C5.04867 9.69447 4.5764 9.93781 4.28749 10.1655C4.07792 10.3306 4.01391 10.4564 4.00471 10.4866C3.96487 10.6173 4.20543 10.7698 4.28749 10.8345C4.5764 11.0622 5.04867 11.3055 5.71027 11.526C6.239 11.7023 6.85792 11.8539 7.54609 11.9722C7.48792 11.0135 7.48793 9.98646 7.54609 9.02781ZM8.59156 3.92606C6.66459 4.63282 5.13477 6.16263 4.42802 8.0896C4.6597 7.98995 4.90375 7.89812 5.15687 7.81375C5.90274 7.56512 6.77366 7.36608 7.72906 7.22711C7.86804 6.27171 8.06707 5.4008 8.3157 4.65491C8.40007 4.4018 8.4919 4.15775 8.59156 3.92606ZM13.4123 3.92606C13.512 4.15775 13.6039 4.4018 13.6882 4.65491C13.9368 5.40079 14.1359 6.27169 14.2748 7.22708C15.2303 7.36606 16.1013 7.56511 16.8472 7.81375C17.1003 7.8981 17.3442 7.98989 17.5758 8.08952C16.8691 6.16259 15.3393 4.6328 13.4123 3.92606ZM11.002 3.50008C10.8805 3.49969 10.7293 3.70701 10.6674 3.78554C10.4398 4.07445 10.1964 4.54672 9.97593 5.20831C9.79961 5.73705 9.64806 6.35596 9.52976 7.04413C10.4884 6.98597 11.5155 6.98596 12.4741 7.04413C12.3558 6.35596 12.2043 5.73705 12.028 5.20831C11.8075 4.54672 11.5641 4.07445 11.3365 3.78554C11.2746 3.70701 11.1234 3.49969 11.002 3.50008Z" fill="white" style="fill:white;fill-opacity:1;"/>
</g>
</svg>
