<svg xmlns="http://www.w3.org/2000/svg" width="74" height="74" viewBox="0 0 74 74" fill="none">
  <g filter="url(#filter0_d_1236_25690)">
    <circle opacity="0.95" cx="37" cy="33" r="22" fill="#3461FF" style="fill:#3461FF;fill:color(display-p3 0.2042 0.3792 1.0000);fill-opacity:1;"/>
    <path d="M40.8863 24.3574L33.7549 24.3574C30.635 24.3574 29.2979 26.0929 29.2979 28.6961L29.2979 37.3736C29.2979 39.9768 30.635 41.7123 33.7549 41.7123L40.8863 41.7123C44.0063 41.7123 45.3434 39.9768 45.3434 37.3736L45.3434 28.6961C45.3434 26.0929 44.0063 24.3574 40.8863 24.3574ZM33.7549 33.2518L37.3206 33.2518C37.6861 33.2518 37.9892 33.5468 37.9892 33.9026C37.9892 34.2584 37.6861 34.5534 37.3206 34.5534L33.7549 34.5534C33.3895 34.5534 33.0864 34.2584 33.0864 33.9026C33.0864 33.5468 33.3895 33.2518 33.7549 33.2518ZM40.8863 38.0244L33.7549 38.0244C33.3895 38.0244 33.0864 37.7294 33.0864 37.3736C33.0864 37.0178 33.3895 36.7228 33.7549 36.7228L40.8863 36.7228C41.2518 36.7228 41.5549 37.0178 41.5549 37.3736C41.5549 37.7294 41.2518 38.0244 40.8863 38.0244ZM43.1148 30.6486L41.332 30.6486C39.977 30.6486 38.8806 29.5812 38.8806 28.2623L38.8806 26.5268C38.8806 26.171 39.1837 25.876 39.5492 25.876C39.9146 25.876 40.2177 26.171 40.2177 26.5268L40.2177 28.2623C40.2177 28.861 40.7169 29.347 41.332 29.347L43.1148 29.347C43.4803 29.347 43.7834 29.642 43.7834 29.9978C43.7834 30.3535 43.4803 30.6486 43.1148 30.6486Z" fill="white" style="fill:white;fill-opacity:1;"/>
  </g>
  <defs>
    <filter id="filter0_d_1236_25690" x="0" y="0" width="74" height="74" filterUnits="userSpaceOnUse" color-interpolation-filters="sRGB">
      <feFlood flood-opacity="0" result="BackgroundImageFix"/>
      <feColorMatrix in="SourceAlpha" type="matrix" values="0 0 0 0 0 0 0 0 0 0 0 0 0 0 0 0 0 0 127 0" result="hardAlpha"/>
      <feOffset dy="4"/>
      <feGaussianBlur stdDeviation="7.5"/>
      <feComposite in2="hardAlpha" operator="out"/>
      <feColorMatrix type="matrix" values="0 0 0 0 0 0 0 0 0 0 0 0 0 0 0 0 0 0 0.09 0"/>
      <feBlend mode="normal" in2="BackgroundImageFix" result="effect1_dropShadow_1236_25690"/>
      <feBlend mode="normal" in="SourceGraphic" in2="effect1_dropShadow_1236_25690" result="shape"/>
    </filter>
  </defs>
</svg>