<svg width="26" height="24" viewBox="0 0 26 24" fill="none" xmlns="http://www.w3.org/2000/svg">
<g id="vuesax/bulk/layer">
<g id="layer">
<path id="Vector" d="M20.4461 4.84512L14.2606 2.25907C13.3528 1.88256 11.9806 1.88256 11.0728 2.25907L4.88722 4.84512C3.325 5.49907 3.09277 6.39081 3.09277 6.86641C3.09277 7.34201 3.325 8.23375 4.88722 8.88769L11.0728 11.4737C11.5267 11.662 12.0967 11.7611 12.6667 11.7611C13.2367 11.7611 13.8067 11.662 14.2606 11.4737L20.4461 8.88769C22.0083 8.23375 22.2406 7.34201 22.2406 6.86641C22.2406 6.39081 22.0189 5.49907 20.4461 4.84512Z" fill="white" style="fill:white;fill-opacity:1;"/>
<path id="Vector_2" opacity="0.4" d="M12.6668 16.8837C12.2656 16.8837 11.8645 16.8044 11.4951 16.6558L4.38064 13.6833C3.29342 13.2276 2.44897 12.0088 2.44897 10.8892C2.44897 10.483 2.79731 10.156 3.23009 10.156C3.66286 10.156 4.0112 10.483 4.0112 10.8892C4.0112 11.4243 4.4862 12.1178 5.01398 12.3358L12.1284 15.3083C12.4662 15.447 12.8568 15.447 13.1945 15.3083L20.309 12.3358C20.8368 12.1178 21.3118 11.4342 21.3118 10.8892C21.3118 10.483 21.6601 10.156 22.0929 10.156C22.5257 10.156 22.874 10.483 22.874 10.8892C22.874 11.9989 22.0295 13.2276 20.9423 13.6833L13.8279 16.6558C13.469 16.8044 13.0679 16.8837 12.6668 16.8837Z" fill="white" style="fill:white;fill-opacity:1;"/>
<path id="Vector_3" opacity="0.4" d="M12.6668 21.7981C12.2656 21.7981 11.8645 21.7189 11.4951 21.5703L4.38064 18.5978C3.20898 18.1123 2.44897 17.0125 2.44897 15.8036C2.44897 15.3974 2.79731 15.0704 3.23009 15.0704C3.66286 15.0704 4.0112 15.3974 4.0112 15.8036C4.0112 16.4279 4.40175 16.9926 5.01398 17.2503L12.1284 20.2227C12.4662 20.3614 12.8568 20.3614 13.1945 20.2227L20.309 17.2503C20.9106 17.0025 21.3118 16.4279 21.3118 15.8036C21.3118 15.3974 21.6601 15.0704 22.0929 15.0704C22.5257 15.0704 22.874 15.3974 22.874 15.8036C22.874 17.0125 22.114 18.1024 20.9423 18.5978L13.8279 21.5703C13.469 21.7189 13.0679 21.7981 12.6668 21.7981Z" fill="white" style="fill:white;fill-opacity:1;"/>
</g>
</g>
</svg>
