<svg width="28" height="28" viewBox="0 0 28 28" fill="none" xmlns="http://www.w3.org/2000/svg">
<g id="vuesax/bulk/music-library-2">
<g id="music-library-2">
<path id="Vector" opacity="0.72" d="M22.1666 8.16671V9.48505C21.7933 9.38005 21.4083 9.33337 20.9999 9.33337H6.99992C6.59159 9.33337 6.20659 9.38005 5.83325 9.48505V8.16671C5.83325 6.88337 6.88325 5.83337 8.16659 5.83337H19.8333C21.1166 5.83337 22.1666 6.88337 22.1666 8.16671Z" fill="white" style="fill:white;fill-opacity:1;"/>
<path id="Vector_2" opacity="0.4" d="M18.6666 4.09505V5.83337H9.33325V4.09505C9.33325 3.12672 10.1266 2.33337 11.0949 2.33337H16.9049C17.8732 2.33337 18.6666 3.12672 18.6666 4.09505Z" fill="white" style="fill:white;fill-opacity:1;"/>
<path id="Vector_3" d="M25.6666 14V21C25.6666 23.5667 23.5666 25.6667 20.9999 25.6667H6.99992C4.43325 25.6667 2.33325 23.5667 2.33325 21V14C2.33325 11.8417 3.82659 10.01 5.83325 9.48505C6.20659 9.38005 6.59159 9.33337 6.99992 9.33337H20.9999C21.4083 9.33337 21.7933 9.38005 22.1666 9.48505C24.1733 10.01 25.6666 11.8417 25.6666 14Z" fill="white" style="fill:white;fill-opacity:1;"/>
<path id="Vector_4" d="M17.9084 12.2617C17.5584 11.9933 16.9284 11.7366 15.9367 12.005L12.8451 12.8567C11.8768 13.1133 11.2584 13.93 11.2584 14.9333V16.7416V18.8417C11.0484 18.7833 10.8151 18.7366 10.5818 18.7366C9.25176 18.7366 8.16675 19.8217 8.16675 21.1517C8.16675 22.4817 9.25176 23.5667 10.5818 23.5667C11.9118 23.5667 12.9851 22.4933 12.9968 21.175C12.9968 21.1633 13.0084 21.1516 13.0084 21.14V17.395L16.9167 16.3333V17.8033C16.7067 17.745 16.4851 17.6983 16.2517 17.6983C14.9217 17.6983 13.8367 18.7833 13.8367 20.1133C13.8367 21.4433 14.9217 22.5283 16.2517 22.5283C17.5817 22.5283 18.6667 21.4433 18.6667 20.1133V15.19V14.0817C18.6667 13.0667 18.2467 12.53 17.9084 12.2617ZM10.5818 21.8283C10.2084 21.8283 9.91675 21.525 9.91675 21.1633C9.91675 20.8017 10.2201 20.4983 10.5818 20.4983C10.9434 20.4983 11.2468 20.8017 11.2468 21.1633C11.2468 21.525 10.9551 21.8283 10.5818 21.8283ZM16.2517 20.79C15.8784 20.79 15.5867 20.4867 15.5867 20.125C15.5867 19.7633 15.8901 19.46 16.2517 19.46C16.6134 19.46 16.9167 19.7633 16.9167 20.125C16.9167 20.4867 16.6134 20.79 16.2517 20.79Z" fill="#C34337" style="fill:#C34337;fill:color(display-p3 0.7647 0.2627 0.2157);fill-opacity:1;"/>
</g>
</g>
</svg>
