<svg xmlns="http://www.w3.org/2000/svg" width="20" height="20" viewBox="0 0 20 20" fill="none">
  <g clip-path="url(#clip0_1236_26121)">
    <path d="M18.2791 4.30957C18.4667 4.4971 18.572 4.75146 18.572 5.01667V18.9999C18.572 19.5522 18.1243 19.9999 17.572 19.9999H2.86719C2.3149 19.9999 1.86719 19.5522 1.86719 18.9999V0.999999C1.86719 0.447714 2.3149 0 2.86719 0H13.5554C13.8206 0 14.075 0.105359 14.2625 0.2929L16.1133 2.14371L18.2791 4.30957Z" fill="#B12A27" style="fill:#B12A27;fill:color(display-p3 0.6941 0.1647 0.1529);fill-opacity:1;"/>
    <path d="M9.44129 1.33984H1.42969V4.92453H9.44129V1.33984Z" fill="#F2F2F2" style="fill:#F2F2F2;fill:color(display-p3 0.9490 0.9490 0.9490);fill-opacity:1;"/>
    <path d="M4.30395 2.51391C4.26859 2.42852 4.22148 2.35195 4.15672 2.28719C4.09195 2.22242 4.01242 2.16941 3.92113 2.13406C3.82691 2.09578 3.7209 2.07812 3.60313 2.07812H2.72266V4.35137H3.1673V3.49445H3.60313C3.7209 3.49445 3.82691 3.4768 3.92113 3.43852C4.01242 3.40316 4.09191 3.3502 4.15672 3.28539C4.22152 3.22062 4.26863 3.14699 4.30395 3.05867C4.33633 2.97328 4.35402 2.88199 4.35402 2.78777C4.35398 2.69059 4.33633 2.5993 4.30395 2.51391ZM3.82395 3.01152C3.76504 3.06746 3.68262 3.09691 3.5825 3.09691H3.1673V2.47266H3.5825C3.68262 2.47266 3.76508 2.50211 3.82395 2.56098C3.87988 2.61691 3.90934 2.69348 3.90934 2.7877C3.90937 2.87902 3.87992 2.95559 3.82395 3.01152Z" fill="#B12A27" style="fill:#B12A27;fill:color(display-p3 0.6941 0.1647 0.1529);fill-opacity:1;"/>
    <path d="M6.43121 2.95855C6.42828 2.87906 6.42531 2.8084 6.41648 2.74359C6.40766 2.67879 6.39293 2.61992 6.3723 2.56398C6.35168 2.51098 6.3252 2.45797 6.28984 2.41086C6.21035 2.29602 6.11316 2.21062 6.00422 2.15762C5.8923 2.10461 5.7598 2.07812 5.60375 2.07812H4.78516V4.35137H5.60375C5.7598 4.35137 5.8923 4.32488 6.00422 4.27188C6.11316 4.21887 6.21035 4.13348 6.28984 4.01863C6.3252 3.97152 6.35168 3.91852 6.3723 3.86551C6.39293 3.80957 6.40766 3.75066 6.41648 3.6859C6.42531 3.62113 6.42824 3.55043 6.43121 3.47094C6.43414 3.39437 6.43414 3.30898 6.43414 3.21477C6.43414 3.12055 6.43414 3.03512 6.43121 2.95855ZM5.98656 3.44445C5.98656 3.51219 5.98066 3.5652 5.97477 3.6123C5.96887 3.65648 5.96004 3.6977 5.94828 3.72715C5.93652 3.75953 5.91883 3.78898 5.89824 3.81547C5.82461 3.90969 5.71273 3.95387 5.56551 3.95387H5.22688V2.4727H5.56551C5.71273 2.4727 5.82465 2.5198 5.89824 2.61402C5.91887 2.64051 5.93652 2.66703 5.94828 2.69941C5.96004 2.7318 5.96891 2.77008 5.97477 2.81719C5.98066 2.86137 5.98656 2.9173 5.98656 2.98207C5.98949 3.04687 5.98949 3.12637 5.98949 3.21469C5.98953 3.30309 5.98953 3.37965 5.98656 3.44445Z" fill="#B12A27" style="fill:#B12A27;fill:color(display-p3 0.6941 0.1647 0.1529);fill-opacity:1;"/>
    <path d="M8.33086 2.4727V2.07812H6.83203V4.35137H7.27668V3.42973H8.1748V3.03219H7.27668V2.4727H8.33086Z" fill="#B12A27" style="fill:#B12A27;fill:color(display-p3 0.6941 0.1647 0.1529);fill-opacity:1;"/>
    <path d="M4.30395 2.51391C4.26859 2.42852 4.22148 2.35195 4.15672 2.28719C4.09195 2.22242 4.01242 2.16941 3.92113 2.13406C3.82691 2.09578 3.7209 2.07812 3.60313 2.07812H2.72266V4.35137H3.1673V3.49445H3.60313C3.7209 3.49445 3.82691 3.4768 3.92113 3.43852C4.01242 3.40316 4.09191 3.3502 4.15672 3.28539C4.22152 3.22062 4.26863 3.14699 4.30395 3.05867C4.33633 2.97328 4.35402 2.88199 4.35402 2.78777C4.35398 2.69059 4.33633 2.5993 4.30395 2.51391ZM3.82395 3.01152C3.76504 3.06746 3.68262 3.09691 3.5825 3.09691H3.1673V2.47266H3.5825C3.68262 2.47266 3.76508 2.50211 3.82395 2.56098C3.87988 2.61691 3.90934 2.69348 3.90934 2.7877C3.90937 2.87902 3.87992 2.95559 3.82395 3.01152Z" fill="#B12A27" style="fill:#B12A27;fill:color(display-p3 0.6941 0.1647 0.1529);fill-opacity:1;"/>
    <path opacity="0.08" d="M18.572 4.60328V20.0007H1.86719V16.3906L9.67633 8.58148L10.1386 8.11918L10.3948 7.86297L10.8218 7.43602L11.3283 6.92953L16.1133 2.14453L18.572 4.60328Z" fill="#040000" style="fill:#040000;fill:color(display-p3 0.0157 0.0000 0.0000);fill-opacity:1;"/>
    <path d="M18.5717 4.60297H13.9688V0L18.5717 4.60297Z" fill="#771B1B" style="fill:#771B1B;fill:color(display-p3 0.4667 0.1059 0.1059);fill-opacity:1;"/>
    <path d="M16.1894 14.4796C16.0922 14.3089 15.9597 14.1469 15.7949 13.9997C15.6594 13.876 15.5004 13.7612 15.3208 13.6552C14.5964 13.2282 13.5628 13.0221 12.1582 13.0221H12.0169C11.9403 12.9514 11.8608 12.8807 11.7784 12.8071C11.2454 12.3271 10.8214 11.8059 10.4916 11.2259C11.1394 9.79769 11.4486 8.52562 11.4103 7.44199C11.4044 7.25941 11.3779 7.08863 11.3308 6.92961C11.2601 6.67344 11.1424 6.44668 10.9774 6.26117C10.9745 6.25824 10.9745 6.25824 10.9715 6.25527C10.7095 5.96082 10.3444 5.79297 9.9733 5.79297C9.59931 5.79297 9.25482 5.95492 9.00451 6.25234C8.75716 6.5468 8.62466 6.95023 8.61877 7.4243C8.60994 8.14867 8.66881 8.83477 8.79252 9.46785C8.80427 9.51793 8.81314 9.56797 8.8249 9.61801C8.94857 10.1922 9.13115 10.737 9.3667 11.2434C9.0899 11.8059 8.81017 12.2917 8.6158 12.6215C8.46857 12.8718 8.30662 13.1339 8.13877 13.396C7.38201 13.5314 6.74005 13.6963 6.1806 13.9025C5.42384 14.1763 4.81724 14.5296 4.38142 14.9507C4.09873 15.2216 3.90732 15.5102 3.8131 15.8106C3.71298 16.1198 3.71888 16.4289 3.83076 16.7057C3.93381 16.9619 4.11931 17.1769 4.3667 17.3241C4.4256 17.3595 4.48744 17.3889 4.5522 17.4154C4.74068 17.492 4.94677 17.5332 5.16173 17.5332C5.65939 17.5332 6.17173 17.3182 6.60459 16.9325C7.41142 16.211 8.24474 15.0509 8.7365 14.3176C9.1399 14.2558 9.57865 14.2028 10.0734 14.1498C10.6564 14.0909 11.1717 14.0555 11.6399 14.0379C11.7842 14.1674 11.9226 14.2911 12.0551 14.4089C12.7913 15.0655 13.3508 15.5396 13.8572 15.8723C13.8572 15.8753 13.8602 15.8753 13.8631 15.8753C14.0634 16.0078 14.2548 16.1167 14.4462 16.2051C14.6611 16.3052 14.879 16.3582 15.1028 16.3582C15.3855 16.3582 15.6505 16.2728 15.8714 16.1168C16.0952 15.9548 16.2571 15.7222 16.3308 15.4601C16.4161 15.1451 16.3661 14.7947 16.1894 14.4796ZM9.67884 8.58156C9.63763 8.21641 9.61994 7.83656 9.62584 7.43609C9.63173 7.05625 9.77013 6.80004 9.9733 6.80004C10.1264 6.80004 10.2884 6.93844 10.362 7.20344C10.3826 7.28293 10.3973 7.37422 10.4003 7.47727C10.4061 7.60094 10.4032 7.73051 10.3973 7.86301C10.3797 8.23699 10.3149 8.63449 10.203 9.06148C10.1352 9.33535 10.0469 9.62098 9.93798 9.91836C9.81431 9.50027 9.72595 9.05562 9.67884 8.58156ZM4.7672 16.3318C4.71713 16.2081 4.7731 15.9696 5.07935 15.6752C5.54755 15.2276 6.28076 14.8742 7.30255 14.6062C7.10822 14.8712 6.91681 15.1127 6.73131 15.3336C6.44861 15.6751 6.17771 15.9637 5.9333 16.1816C5.72423 16.37 5.49455 16.4879 5.27666 16.5173C5.23838 16.5232 5.20009 16.5261 5.16181 16.5261C4.97037 16.5262 4.81431 16.4496 4.7672 16.3318ZM9.47271 13.2017L9.49334 13.1693L9.46095 13.1752C9.46685 13.1605 9.47568 13.1457 9.48451 13.134C9.60818 12.9249 9.76424 12.657 9.93209 12.3478L9.94681 12.3802L9.98509 12.3007C10.1088 12.4773 10.2442 12.6511 10.3856 12.8189C10.4533 12.8984 10.524 12.975 10.5946 13.0515L10.5475 13.0545L10.5887 13.0927C10.468 13.1016 10.3414 13.1134 10.2147 13.1251C10.1353 13.1339 10.0528 13.1398 9.97033 13.1487C9.79959 13.1663 9.63173 13.184 9.47271 13.2017ZM14.4285 15.0391C14.0781 14.8153 13.6865 14.5002 13.2036 14.0791C13.8897 14.1498 14.4285 14.3 14.8113 14.5238C14.9792 14.621 15.1058 14.7211 15.1912 14.8182C15.3325 14.9684 15.3826 15.1039 15.3561 15.1952C15.3325 15.2864 15.2295 15.3483 15.1028 15.3483C15.0292 15.3483 14.9527 15.3306 14.8731 15.2923C14.7377 15.2276 14.5963 15.148 14.4462 15.0509C14.4403 15.0509 14.4344 15.045 14.4285 15.0391Z" fill="#F2F2F2" style="fill:#F2F2F2;fill:color(display-p3 0.9490 0.9490 0.9490);fill-opacity:1;"/>
  </g>
  <defs>
    <clipPath id="clip0_1236_26121">
      <rect width="20" height="20" fill="white" style="fill:white;fill-opacity:1;"/>
    </clipPath>
  </defs>
</svg>